<svg xmlns="http://www.w3.org/2000/svg" width="1200" height="1200" aria-labelledby="title desc">
  <desc>
    A friendly alien mascot holding a stylized Dart logo in the center,
    with a small character on the left sending horizontal signal waves to the right,
    representing reactive state management for Dart and Flutter.
  </desc>
  <defs>
    <linearGradient id="a" x1="0%" x2="100%" y1="0%" y2="100%">
      <stop offset="0%" stop-color="#ff9a9e"/>
      <stop offset="40%" stop-color="#fecf71"/>
      <stop offset="80%" stop-color="#f5576c"/>
      <stop offset="100%" stop-color="#f093fb"/>
    </linearGradient>
    <linearGradient id="b" x1="0%" x2="100%" y1="0%" y2="0%">
      <stop offset="0%" stop-color="#a5b4fc" stop-opacity=".2"/>
      <stop offset="30%" stop-color="#c4b5fd" stop-opacity=".8"/>
      <stop offset="70%" stop-color="#6ee7ff" stop-opacity=".9"/>
      <stop offset="100%" stop-color="#22d3ee" stop-opacity=".4"/>
    </linearGradient>
    <filter id="c" width="160%" height="160%" x="-30%" y="-30%">
      <feGaussianBlur result="blur" stdDeviation="8"/>
      <feColorMatrix in="blur" values="0 0 0 0 0.6 0 0 0 0 0.9 0 0 0 0 1 0 0 0 0.7 0"/>
    </filter>
  </defs>
  <g transform="translate(600 600) scale(1.15) translate(-600 -600)">
    <rect width="140" height="140" x="-70" y="-70" fill="url(#a)" rx="30" transform="rotate(-18 1937.85 -793.338)"/>
    <g transform="translate(340 554)">
    <ellipse cx="-22" cy="-10" fill="#020617" rx="10" ry="14"/>
    <ellipse cx="22" cy="-10" fill="#020617" rx="10" ry="14"/>
    <circle cx="-24" cy="-16" r="4" fill="#f9fafb"/>
    <circle cx="20" cy="-16" r="4" fill="#f9fafb"/>
    <path fill="none" stroke="#020617" stroke-linecap="round" stroke-width="4" d="M-18 6Q0 18 18 6"/>
    <ellipse cx="-38" cy="-2" fill="#fb7185" opacity=".7" rx="8" ry="6"/>
    <ellipse cx="38" cy="-2" fill="#fb7185" opacity=".7" rx="8" ry="6"/>
  </g>
  <g fill="none" stroke-linecap="round" stroke-width="14">
    <path stroke="#38bdf8" d="M322 620q-14 40-8 78"/>
    <path stroke="#22c55e" d="M358 620q14 40 8 78"/>
  </g>
  <g fill="none" stroke-linecap="round" stroke-width="14">
    <path stroke="#38bdf8" d="M306 574q-30 26-24 58"/>
    <path stroke="#22d3ee" d="M374 574q56-10 106-14"/>
  </g>
  <g fill="none" stroke-linecap="round">
    <path stroke="url(#b)" stroke-width="12" d="M0 0q70-26 140 0" opacity=".9" transform="translate(495 560)"/>
    <path stroke="url(#b)" stroke-width="9" d="M0 22q90-22 180 0" opacity=".7" transform="translate(495 560)"/>
    <path stroke="url(#b)" stroke-width="7" d="M0-22q90-22 180 0" opacity=".6" transform="translate(495 560)"/>
    <path stroke="#e0f2fe" stroke-width="4" d="M0 0q70-26 140 0" filter="url(#c)" opacity=".35" transform="translate(495 560)"/>
  </g>
  <g transform="translate(600 420)">
    <path fill="#020617" d="M-230-40Q0-140 230-40 150 70 0 110-150 70-230-40"/>
    <path fill="#0f172a" d="M-190-20q190-90 380 0Q130 50 0 80-130 50-190-20"/>
    <ellipse cy="10" fill="#1d4ed8" opacity=".7" rx="90" ry="28"/>
    <ellipse cy="6" fill="#38bdf8" opacity=".9" rx="50" ry="14"/>
    <rect width="24" height="90" x="-12" y="80" fill="#e0f2fe" rx="12"/>
  </g>
  <g transform="translate(600 680)">
    <circle r="170" fill="url(#a)"/>
    <ellipse cy="110" fill="#fb7185" opacity=".5" rx="120" ry="40"/>
    <g transform="translate(0 -20)">
      <ellipse cx="-55" cy="-20" fill="#020617" rx="30" ry="36"/>
      <ellipse cx="55" cy="-20" fill="#020617" rx="30" ry="36"/>
      <circle cx="-58" cy="-28" r="9" fill="#f9fafb"/>
      <circle cx="52" cy="-28" r="9" fill="#f9fafb"/>
      <path fill="none" stroke="#020617" stroke-linecap="round" stroke-width="10" d="M-40 18q40 30 80 0"/>
      <g stroke="#020617" stroke-linecap="round" stroke-width="4">
        <path d="m-74-40-12-12M-62-48l-8-12M74-40l12-12M62-48l8-12"/>
      </g>
      <ellipse cx="-90" fill="#fb7185" opacity=".7" rx="24" ry="16"/>
      <ellipse cx="90" fill="#fb7185" opacity=".7" rx="24" ry="16"/>
    </g>
    <g fill="none" stroke-linecap="round" stroke-width="26">
      <path stroke="#fb7185" d="M-50 120q-20 90-10 170"/>
      <path stroke="#fdba74" d="M50 120q20 90 10 170"/>
    </g>
  </g>
  <g transform="translate(600 680)">
    <rect width="240" height="120" x="-120" y="60" fill="#020617" opacity=".9" rx="38"/>
    <rect width="232" height="108" x="-116" y="66" fill="#020617" rx="34"/>
    <rect width="224" height="100" x="-112" y="70" fill="#020617" rx="32"/>
    <g fill="none" stroke-linecap="round" stroke-width="24">
      <path stroke="#fb7185" d="M-70 20q-60 60-20 116"/>
      <path stroke="#fdba74" d="M70 20q60 60 20 116"/>
    </g>
    <g fill="#e5e7eb" font-family="system-ui, -apple-system, BlinkMacSystemFont, 'SF Pro Text', 'Inter', sans-serif" font-size="26" letter-spacing="2" text-anchor="middle">
      <text y="118">ALIEN</text>
      <text y="148">SIGNALS</text>
    </g>
  </g>
  <g stroke-linecap="round" stroke-width="10">
    <path stroke="#38bdf8" d="M360 560q-40-40-60-80"/>
    <path stroke="#f97316" d="M840 560q40-40 60-80"/>
    <path stroke="#a855f7" d="M360 780q-40 40-60 80"/>
    <path stroke="#22c55e" d="M840 780q40 40 60 80"/>
  </g>
  </g>
</svg>
